<svg xmlns="http://www.w3.org/2000/svg" viewBox="0 0 100 100">
  <defs>
    <linearGradient id="plGradient" x1="0%" y1="0%" x2="100%" y2="100%">
      <stop offset="0%" style="stop-color:#3D195B;stop-opacity:1" />
      <stop offset="50%" style="stop-color:#00FF87;stop-opacity:1" />
      <stop offset="100%" style="stop-color:#FF2882;stop-opacity:1" />
    </linearGradient>
  </defs>
  
  <!-- Premier League Crown -->
  <g transform="translate(50,50)">
    <!-- Crown Base -->
    <ellipse cx="0" cy="15" rx="35" ry="8" fill="url(#plGradient)" opacity="0.8"/>
    
    <!-- Crown Body -->
    <path d="M -30 15 L -25 -10 L -15 -5 L -5 -15 L 5 -5 L 15 -15 L 25 -5 L 30 15 Z" 
          fill="url(#plGradient)" stroke="#3D195B" stroke-width="2"/>
    
    <!-- Crown Jewels -->
    <circle cx="-20" cy="0" r="3" fill="#FF2882"/>
    <circle cx="0" cy="-8" r="4" fill="#00FF87"/>
    <circle cx="20" cy="0" r="3" fill="#FF2882"/>
    
    <!-- Central Gem -->
    <polygon points="0,-12 -4,-4 4,-4" fill="#3D195B"/>
    
    <!-- Football -->
    <circle cx="0" cy="25" r="8" fill="white" stroke="#3D195B" stroke-width="1"/>
    <path d="M -5 25 Q 0 20 5 25 Q 0 30 -5 25" fill="none" stroke="#3D195B" stroke-width="1"/>
    <path d="M 0 17 L 0 33 M -8 25 L 8 25" stroke="#3D195B" stroke-width="1"/>
  </g>
</svg>
